<svg width="1200" height="630" viewBox="0 0 1200 630" fill="none" xmlns="http://www.w3.org/2000/svg">
  <defs>
    <linearGradient id="bg" x1="0" y1="0" x2="1200" y2="630" gradientUnits="userSpaceOnUse">
      <stop stop-color="#0a1733"/>
      <stop offset="0.55" stop-color="#0d1d3d"/>
      <stop offset="1" stop-color="#102a52"/>
    </linearGradient>
    <radialGradient id="glow" cx="0" cy="0" r="1" gradientTransform="translate(980 140) rotate(130) scale(420)" gradientUnits="userSpaceOnUse">
      <stop stop-color="#2fbecd" stop-opacity="0.45"/>
      <stop offset="1" stop-color="#2fbecd" stop-opacity="0"/>
    </radialGradient>
    <linearGradient id="accent" x1="120" y1="250" x2="120" y2="430" gradientUnits="userSpaceOnUse">
      <stop stop-color="#2fbecd"/>
      <stop offset="1" stop-color="#14a2b4"/>
    </linearGradient>
    <pattern id="grid" width="48" height="48" patternUnits="userSpaceOnUse">
      <path d="M48 0H0V48" fill="none" stroke="#ffffff" stroke-opacity="0.05" stroke-width="1"/>
    </pattern>
  </defs>
  <rect width="1200" height="630" fill="url(#bg)"/>
  <rect width="1200" height="630" fill="url(#grid)"/>
  <rect width="1200" height="630" fill="url(#glow)"/>

  <!-- monogram mark -->
  <rect x="100" y="96" width="78" height="78" rx="18" fill="#ffffff" fill-opacity="0.06" stroke="#2fbecd" stroke-opacity="0.5"/>
  <path d="M120 158 L137 113 H141 L158 158 H148.5 L145.2 148.8 H132.8 L129.5 158 Z M135 142 H143 L139 130 Z" fill="url(#accent)"/>

  <text x="100" y="320" font-family="Georgia, 'Times New Roman', serif" font-size="78" font-weight="700" fill="#ffffff" letter-spacing="-1">Arta Tejarat</text>
  <text x="104" y="372" font-family="Arial, Helvetica, sans-serif" font-size="27" font-weight="500" fill="#9fb4d6" letter-spacing="3">INTERNATIONAL APADANA</text>

  <rect x="104" y="410" width="60" height="4" rx="2" fill="url(#accent)"/>
  <text x="104" y="470" font-family="Arial, Helvetica, sans-serif" font-size="34" font-weight="400" fill="#d6e1f2">International Trade, Delivered with Confidence</text>
  <text x="104" y="520" font-family="Arial, Helvetica, sans-serif" font-size="24" font-weight="400" fill="#7e93b8">Import · Export · Sourcing · Trade Facilitation</text>

  <text x="104" y="582" font-family="Arial, Helvetica, sans-serif" font-size="22" font-weight="600" fill="#2fbecd">www.artaintl.com</text>
</svg>
