<?xml version="1.0" encoding="utf-8"?>
<!-- Generator: Adobe Illustrator 24.2.3, SVG Export Plug-In . SVG Version: 6.00 Build 0)  -->
<svg version="1.1" id="Layer_1" xmlns="http://www.w3.org/2000/svg" xmlns:xlink="http://www.w3.org/1999/xlink" x="0px" y="0px"
	 viewBox="0 0 1080 1080" style="enable-background:new 0 0 1080 1080;" xml:space="preserve">
<style type="text/css">
	.st0{fill:url(#SVGID_1_);}
	.st1{fill:url(#SVGID_2_);}
	.st2{fill:#10233E;}
	.st3{fill:#7A7E7D;}
	.st4{fill:#A8A8A8;}
	.st5{fill:none;stroke:#000000;stroke-miterlimit:10;}
</style>
<g>
	<linearGradient id="SVGID_1_" gradientUnits="userSpaceOnUse" x1="443.0782" y1="560.0826" x2="154.3653" y2="810.3004">
		<stop  offset="0.1527" style="stop-color:#4598B1"/>
		<stop  offset="1" style="stop-color:#0F2744"/>
	</linearGradient>
	<path class="st0" d="M562.18,677.28c-2,1.35-3.87,2.94-6.01,4c-27.28,13.57-55.34,25.36-84.24,34.94
		c-13.68,4.53-27.76,8.06-41.88,11.03c-11.5,2.42-23.27,4.1-34.99,4.78c-20.73,1.2-37.94-7.87-52.55-21.56
		c-18.12-16.98-30.66-37.82-39.71-60.94c-13.7-34.98-17.02-71.19-11.83-107.97c3.18-22.57,10.78-44.14,21.15-64.64
		c8.21-16.24,17.43-31.8,28.85-46c2.81-3.5,5.74-6.92,8.75-10.25c1.23-1.36,2.84-2.38,4.27-3.56c0.39,0.31,0.77,0.61,1.16,0.92
		c-0.6,1.38-1.14,2.79-1.82,4.12c-7.44,14.45-15.42,28.65-22.24,43.38c-7.36,15.88-12.53,32.67-14.99,50.02
		c-2.77,19.53-3.21,39.19,1.5,58.58c6.95,28.59,25.24,48.55,49.46,63.74c17.29,10.85,36.11,17.72,56.42,20.12
		c14.02,1.66,28.09,2.95,42.13,4.42c1.11,0.12,2.21,0.31,3.31,0.46c0.04,0.45,0.07,0.89,0.11,1.34c-7.74,0.91-15.46,2.28-23.23,2.65
		c-21.7,1.02-43.45,0.65-64.51-5.16c-23.33-6.45-44.41-17.05-59.25-37.28c-0.93-1.27-2.13-2.34-3.84-4.18
		c-0.18,1.73-0.56,2.6-0.29,3.17c7.58,16.53,17.95,31.11,31.25,43.5c19.63,18.29,43.17,23.59,69.31,21.07
		c20.14-1.95,39.69-6.32,58.99-12.12c20.35-6.11,40.85-6.91,61.66-2.36c5.96,1.3,12.2,1.32,18.32,1.92
		c1.41,0.14,2.83,0.24,4.25,0.36C561.86,676.28,562.02,676.78,562.18,677.28z"/>
	<linearGradient id="SVGID_2_" gradientUnits="userSpaceOnUse" x1="531.8202" y1="693.9425" x2="544.6519" y2="824.3979">
		<stop  offset="0.1527" style="stop-color:#4598B1"/>
		<stop  offset="1" style="stop-color:#0F2744"/>
	</linearGradient>
	<path class="st1" d="M388.17,758.49c0.63,0.04,1.3-0.04,1.89,0.13c26.62,7.64,52.44,3.21,77.93-5.33
		c13.4-4.49,26.82-8.96,40.05-13.94c12.72-4.79,25.32-9.96,37.76-15.44c12.42-5.48,25.58-5.45,38.67-6.46
		c13.57-1.04,27.37-1.32,40.59-4.15c17.32-3.7,33.08-11.86,47.57-22.21c2.69-1.92,5.49-3.68,9.02-6.03
		c-0.51,1.55-0.61,2.42-1.03,3.09c-15.59,24.46-32.12,48.23-53.18,68.39c-23.78,22.76-49.77,41.94-82.16,51.11
		c-21.79,6.17-43.25,5.77-65.01,0.2c-33.11-8.47-62.33-24.43-89.17-45.17c-1.26-0.97-2.37-2.13-3.55-3.19
		C387.76,759.16,387.97,758.83,388.17,758.49z M608.01,752.23c-0.12-0.5-0.23-1.01-0.35-1.51c-1.73-0.16-3.45-0.39-5.18-0.46
		c-19.16-0.79-37.73,2.84-56.07,7.8c-23.43,6.34-46.85,12.7-71.22,14.46c-1.47,0.11-2.87,1.19-4.31,1.82
		c0.13,0.61,0.26,1.22,0.39,1.84c27.82,5.67,55.81,6.28,83.66,0.09C574.2,771.98,591.52,762.8,608.01,752.23z"/>
	<path class="st2" d="M710.65,384.6c6.22,5.92,12.66,11.63,18.6,17.82c13.46,14.04,24.57,29.78,32.66,47.52
		c9.73,21.34,10.28,43.28,4.8,65.91c-7.55,31.18-24.31,56.63-47.15,78.43c-25.8,24.63-53.66,46.88-83.32,66.55
		c-24.22,16.07-49.3,31.02-74.93,44.73c-25.8,13.8-52.96,25.08-80.96,33.73c-17.09,5.28-34.86,8.45-52.39,12.24
		c-3.61,0.78-7.52,0.11-12.13,0.11c16.48-4.42,32.31-7.6,47.34-12.98c18.42-6.59,36.37-14.62,54.19-22.77
		c27.15-12.43,52.72-27.79,76.97-45.13c32.42-23.18,62.76-48.98,90.06-78.05c21.39-22.79,39.91-47.76,51.76-77.09
		c9.48-23.47,13.96-47.54,8.87-72.76c-2.91-14.39-9.87-26.74-19.46-37.7c-5.54-6.34-11.11-12.65-16.66-18.98
		C709.49,385.64,710.07,385.12,710.65,384.6z"/>
	<path class="st2" d="M791.34,572.75c-1.5,48.69-17.93,92.54-47.08,131.3c-33.11,44.02-75.2,77-127.74,95.29
		c-12.25,4.26-25.05,7.09-38.38,6.56c3.33-1.13,6.61-2.49,10.01-3.35c15.07-3.81,27.22-12.32,37.43-23.63
		c11.26-12.47,21.61-25.77,33.24-37.86c6.23-6.48,14.23-11.29,21.59-16.63c30.37-22.04,56.43-48.24,76.18-80.25
		c8.62-13.98,16.46-28.51,23.63-43.28c3.64-7.5,5.04-16.1,7.43-24.21c0.44-1.51,0.81-3.03,1.22-4.55
		C789.69,572.35,790.52,572.55,791.34,572.75z"/>
	<path class="st3" d="M782.35,497.69c0.99,7.8,2.55,15.57,2.88,23.4c1.15,27.21-5.25,52.77-17.51,77.02
		c-7.16,14.17-15.35,27.6-25.71,39.7c-3.41,3.98-7.45,6.25-12.46,7.7c-17.26,4.99-34.4,10.36-51.61,15.52
		c-9.23,2.77-18.48,5.44-27.75,8.04c-1.31,0.37-2.8,0.05-4.71-1c4.96-3.75,10.01-7.4,14.88-11.25
		c22.7-17.96,45.98-35.25,67.82-54.21c17.44-15.13,30.48-34.03,39.87-55.48c6.45-14.72,10.13-29.87,11.77-45.69
		c0.13-1.24,0.6-2.44,0.92-3.67C781.29,497.74,781.82,497.71,782.35,497.69z"/>
	<path class="st3" d="M648.59,686.75c-19.07,14.05-40.28,21.65-64.51,19.85c0-0.29-0.11-0.79,0.02-0.87
		c7.3-4.22,14.56-8.5,21.97-12.53c1.84-1,4.1-1.41,6.22-1.7C624.36,689.86,636.46,688.33,648.59,686.75z"/>
	<path class="st4" d="M650.45,446.88c18.18-2.94,33.92-10.51,44.77-22.2c12.76,14.43,23.57,30.61,32.03,48.11
		c-0.42-19.76-3.84-37.76-9.01-51.81c-42.71-54.44-109.5-89.47-184.55-89.47c-66.08,0-125.76,27.16-168.23,70.81
		c1.27,3.45,2.45,7.29,1.73,12.19c-0.72,4.87-2.62,8.2-2.08,15.8c12.04-16.4,29.74-29.11,50.36-42.02
		c2.7,15.19,9.12,30.43,18.72,45.09c-22.09,18.56-42.33,40.6-59.83,65.86c-6.48,9.34-12.41,18.89-17.8,28.58
		c-7.92-14.45-13.98-28.49-15.36-42.49c-2.18,4.69-3.9,10.86-5.01,19.18c-1.1,8.27-1.9,18.96-2.39,27.73
		c2.49,7.06,5.82,14.13,9.93,21.15c-2.9,6.45-5.57,12.94-8.01,19.47l13.04,30.81c2.82-9.68,6.17-19.32,10.05-28.87
		c27.56,33.4,72.21,64,127.03,84.61c33.13,1.8,68.18,4.06,96.52-0.76c-20.35-2.28-41.41-6.52-62.65-12.88
		c-6.68-2-13.22-4.16-19.63-6.47c6.99-45.38,18.22-87.97,32.86-126.49c12.48,5.68,25.71,10.66,39.57,14.81
		c28.39,8.49,56.51,12.62,82.86,12.8c1.64,18.79,1.28,38.29-1.28,58.1l24.63-27.09c0.15-10.77-0.3-21.39-1.32-31.8
		c10.33-0.83,20.29-2.3,29.78-4.38l11.54-27.1c-13.82,4.17-28.84,6.86-44.66,7.97C669.4,491.2,661.38,467.83,650.45,446.88z
		 M608.81,382.16c4.26-0.4,8.4-0.63,12.38-0.65c9.29-0.05,18.04,1.07,26.5,3.01c11.9,7.38,23.01,15.9,33.18,25.41
		c-11.48,8.76-26.82,13.76-43.85,14.54c-9.53-13.92-20.53-26.37-32.81-37C605.73,385.67,607.26,383.9,608.81,382.16z M613.66,423
		c-9.83-1.65-19.86-4.6-29.76-8.92c3.94-5.71,7.99-11.22,12.13-16.53C602.91,405.08,608.62,413.6,613.66,423z M534.62,352.38
		c22.47,0,44.12,3.44,64.46,9.83c0.88,0.28,1.76,0.56,2.63,0.85c-1.26,0.08-2.52,0.18-3.78,0.29c-20.92,1.79-41.91,6.15-62.48,12.96
		c-5.53-7.56-9.68-15.56-12.27-23.63C526.97,352.48,530.78,352.38,534.62,352.38z M575.81,387.82c-4.03,4.95-7.97,10.09-11.82,15.41
		c-4.26-2.83-8.26-5.88-11.98-9.09C559.6,391.9,567.65,389.72,575.81,387.82z M433.17,377.81c22.6-12.15,47.66-20.37,74.25-23.72
		c1.18,9.71,4.51,19.53,9.71,28.98c-22.38,9.09-44.11,21.13-64.55,35.94C443.41,405.72,436.8,391.82,433.17,377.81z M475.76,629.5
		c-45.99-20.53-82.87-48.96-105.47-79.7c6.22-12.09,13.32-23.96,21.32-35.51c16.49-23.79,35.51-44.96,56.25-62.87
		c16.19,18.73,37.63,35.96,63.02,50.22C495.42,540.41,483.42,583.47,475.76,629.5z M520.31,479.45
		c-21.2-12.31-39.42-26.95-53.82-42.92c20.11-14.8,41.49-26.66,63.53-35.1c6.16,7.12,13.45,13.8,21.71,19.78
		C540.31,439.01,529.78,458.5,520.31,479.45z M579.79,505.01c-13.28-3.97-25.94-8.79-37.87-14.33c8.89-20.58,18.8-39.82,29.58-57.49
		c1.9,0.95,3.82,1.86,5.78,2.74c17.1,7.67,34.61,11.65,51.08,12.25c11.16,20.53,19.27,43.68,23.8,68.46
		C628.93,516.15,604.45,512.39,579.79,505.01z"/>
</g>
<path class="st5" d="M1888.02,274.05c-1.26,0.08-2.52,0.18-3.78,0.29c0.38-0.39,0.76-0.76,1.15-1.14
	C1886.27,273.48,1887.15,273.76,1888.02,274.05z"/>
</svg>
